<?xml version="1.0" encoding="utf-8"?>
<!-- Generator: Adobe Illustrator 24.0.1, SVG Export Plug-In . SVG Version: 6.00 Build 0)  -->
<svg version="1.1" id="Layer_1" xmlns="http://www.w3.org/2000/svg" xmlns:xlink="http://www.w3.org/1999/xlink" x="0px" y="0px"
	 viewBox="0 0 111.6 21.2" style="enable-background:new 0 0 111.6 21.2;" xml:space="preserve">
<style type="text/css">
	.st0{fill:#FFFFFF;}
</style>
<g>
	<g>
		<g>
			<path d="M13.9,17.5h-3V9.7l-3.5,5.6H7.1L3.7,9.7v7.7h-3V4.1h3L7.3,10l3.6-5.9h3V17.5z"/>
			<path d="M19.4,10.8c0-3.9,2.9-6.9,6.9-6.9c2.4,0,4.5,1.2,5.7,3.1l-2.6,1.5c-0.6-1-1.7-1.6-3.1-1.6c-2.3,0-3.9,1.6-3.9,3.9
				s1.5,3.9,3.9,3.9c1.3,0,2.5-0.6,3.1-1.6l2.6,1.5c-1.1,1.9-3.3,3.1-5.7,3.1C22.3,17.8,19.4,14.7,19.4,10.8z"/>
			<path d="M50.1,11.1c0,4-2.8,6.5-6.5,6.5c-4.2,0-7.2-3.1-7.2-6.9s3-6.9,6.9-6.9c2.5,0,4.7,1.2,5.8,3l-2.6,1.6
				c-0.5-0.9-1.7-1.6-3.2-1.6c-2.2,0-3.9,1.6-3.9,4c0,2.3,1.6,3.9,4.2,3.9c1.8,0,2.9-0.8,3.4-2h-3.5V10h6.6V11.1z"/>
		</g>
	</g>
	<g>
		<g>
			<path d="M68.6,3.6v5h-1.1v-2h-1.6v2h-1.2v-5h1.2v1.9h1.6V3.6H68.6z"/>
			<path d="M72.8,5.1v3.6h-1.1V8.3c-0.2,0.3-0.6,0.4-1,0.4c-0.7,0-1.3-0.5-1.3-1.5V5.1h1.1v2c0,0.4,0.3,0.7,0.6,0.7
				c0.4,0,0.7-0.2,0.7-0.7v-2C71.8,5.2,72.8,5.2,72.8,5.1z"/>
			<path d="M79,6.5v2.2h-1.1V6.7c0-0.4-0.2-0.6-0.5-0.6c-0.4,0-0.6,0.3-0.6,0.7v2h-1.1V6.7c0-0.4-0.2-0.6-0.5-0.6
				c-0.4,0-0.6,0.3-0.6,0.7v2h-1.1V5.1h1.1v0.3c0.2-0.2,0.5-0.4,1-0.4c0.4,0,0.7,0.2,0.9,0.5C76.7,5.2,77,5,77.5,5
				C78.5,5,79,5.7,79,6.5z"/>
			<path d="M83.4,5.1v3.6h-1.1V8.3c-0.2,0.3-0.6,0.4-1.1,0.4c-0.9,0-1.7-0.8-1.7-1.9s0.8-1.9,1.7-1.9c0.5,0,0.8,0.2,1.1,0.4V5.1
				H83.4z M82.4,6.9C82.4,6.4,82,6,81.5,6s-0.8,0.3-0.8,0.9s0.4,0.9,0.9,0.9S82.4,7.4,82.4,6.9z"/>
			<path d="M87.7,6.5v2.2h-1.1v-2C86.6,6.3,86.3,6,86,6c-0.4,0-0.7,0.2-0.7,0.7v2h-1.1V5.1h1.1v0.3c0.2-0.3,0.6-0.4,1-0.4
				C87.1,5,87.7,5.5,87.7,6.5z"/>
			<path d="M67.9,16.3v1.1h-3.2v-5h3.1v1.1h-2v0.8h1.8v1.1h-1.8v0.9H67.9z"/>
			<path d="M72,15.1v2.2h-1.1v-2c0-0.4-0.3-0.7-0.6-0.7c-0.4,0-0.7,0.2-0.7,0.7v2h-1.1v-3.6h1.1V14c0.2-0.3,0.6-0.4,1-0.4
				C71.3,13.6,72,14.1,72,15.1z"/>
			<path d="M76.4,13.7v3.4c0,1.2-0.9,1.7-1.9,1.7c-0.7,0-1.4-0.3-1.7-0.9l0.9-0.5c0.1,0.3,0.3,0.5,0.8,0.5s0.8-0.3,0.8-0.8v-0.3
				c-0.2,0.3-0.6,0.5-1,0.5c-1,0-1.8-0.8-1.8-1.8s0.7-1.8,1.8-1.8c0.5,0,0.8,0.2,1,0.5v-0.4h1.1V13.7z M75.3,15.4
				c0-0.5-0.4-0.8-0.9-0.8s-0.9,0.3-0.9,0.8s0.4,0.8,0.9,0.8C75,16.4,75.3,15.9,75.3,15.4z"/>
			<path d="M80.9,13.7v3.6h-1.1V17c-0.2,0.3-0.6,0.4-1.1,0.4c-0.9,0-1.7-0.8-1.7-1.9s0.8-1.9,1.7-1.9c0.5,0,0.8,0.2,1.1,0.4v-0.3
				C79.8,13.8,80.9,13.8,80.9,13.7z M79.8,15.5c0-0.5-0.4-0.9-0.9-0.9S78,14.9,78,15.5c0,0.6,0.4,0.9,0.9,0.9S79.8,16,79.8,15.5z"/>
			<path d="M85.3,13.7v3.4c0,1.2-0.9,1.7-1.9,1.7c-0.7,0-1.4-0.3-1.7-0.9l0.9-0.5c0.1,0.3,0.3,0.5,0.8,0.5s0.8-0.3,0.8-0.8v-0.3
				c-0.2,0.3-0.6,0.5-1,0.5c-1,0-1.8-0.8-1.8-1.8s0.7-1.8,1.8-1.8c0.5,0,0.8,0.2,1,0.5v-0.4h1.1V13.7z M84.3,15.4
				c0-0.5-0.4-0.8-0.9-0.8s-0.9,0.3-0.9,0.8s0.4,0.8,0.9,0.8C83.9,16.4,84.3,15.9,84.3,15.4z"/>
			<path d="M88,16.5c0.3,0,0.5-0.1,0.7-0.3l0.9,0.5c-0.4,0.5-0.9,0.7-1.6,0.7c-1.2,0-2-0.8-2-1.9s0.8-1.9,1.9-1.9
				c1,0,1.8,0.8,1.8,1.9c0,0.2,0,0.3,0,0.4h-2.6C87.2,16.4,87.6,16.5,88,16.5z M88.6,15.1c-0.1-0.4-0.4-0.6-0.8-0.6
				s-0.7,0.2-0.8,0.6H88.6z"/>
			<path d="M95.7,15.1v2.2h-1.1v-2.1c0-0.4-0.2-0.6-0.5-0.6c-0.4,0-0.6,0.3-0.6,0.7v2h-1.1v-2.1c0-0.4-0.2-0.6-0.5-0.6
				c-0.4,0-0.6,0.3-0.6,0.7v2h-1.1v-3.6h1.1V14c0.2-0.2,0.5-0.4,1-0.4c0.4,0,0.7,0.2,0.9,0.5c0.2-0.3,0.5-0.5,1-0.5
				C95.1,13.6,95.7,14.2,95.7,15.1z"/>
			<path d="M98.2,16.5c0.3,0,0.5-0.1,0.7-0.3l0.9,0.5c-0.4,0.5-0.9,0.7-1.6,0.7c-1.2,0-2-0.8-2-1.9s0.8-1.9,1.9-1.9
				c1,0,1.8,0.8,1.8,1.9c0,0.2,0,0.3,0,0.4h-2.6C97.5,16.4,97.9,16.5,98.2,16.5z M98.9,15.1c-0.1-0.4-0.4-0.6-0.8-0.6
				s-0.7,0.2-0.8,0.6H98.9z"/>
			<path d="M104,15.1v2.2h-1.1v-2c0-0.4-0.3-0.7-0.6-0.7c-0.4,0-0.7,0.2-0.7,0.7v2h-1.1v-3.6h1.1V14c0.2-0.3,0.6-0.4,1-0.4
				C103.4,13.6,104,14.1,104,15.1z"/>
			<path d="M106.1,14.7V16c0,0.3,0.3,0.3,0.7,0.3v1c-1.4,0.1-1.8-0.3-1.8-1.3v-1.3h-0.5v-1h0.6V13l1.1-0.3v1h0.7v1H106.1z"/>
		</g>
	</g>
	<rect x="56.6" y="1.5" width="0.2" height="18.1"/>
	<g>
		<path d="M110.9,16.7c0,0.4-0.4,0.8-0.8,0.8c-0.4,0-0.8-0.4-0.8-0.8c0-0.4,0.4-0.8,0.8-0.8C110.5,15.9,110.9,16.3,110.9,16.7z
			 M110.1,16.1c-0.3,0-0.6,0.3-0.6,0.6c0,0.3,0.3,0.6,0.6,0.6c0.3,0,0.6-0.3,0.6-0.6C110.7,16.4,110.4,16.1,110.1,16.1z"/>
		<path d="M109.7,16.3C109.7,16.3,109.7,16.3,109.7,16.3c0.1,0,0.2,0,0.3,0c0.1,0,0.1,0,0.2,0c0,0,0.1,0,0.1,0c0,0,0,0.1,0.1,0.1
			c0,0,0,0.1,0,0.1c0,0.1,0,0.1-0.1,0.1c0,0,0,0,0,0c0,0,0,0,0,0c0,0,0,0,0,0c0,0,0,0,0.1,0.1c0,0,0,0.1,0.1,0.1
			c0,0.1,0.1,0.1,0.1,0.2c0,0,0,0,0,0c0,0,0,0,0,0c-0.1,0-0.1,0-0.2,0c0,0,0,0,0,0c0-0.1-0.1-0.1-0.1-0.2c0,0,0,0,0-0.1
			c0,0,0,0-0.1,0c0,0-0.1,0-0.1,0c0,0,0,0,0,0c0,0.1,0,0.2,0,0.3c-0.1,0-0.1,0-0.2,0C109.7,16.8,109.7,16.6,109.7,16.3z M109.9,16.4
			C109.9,16.4,109.9,16.4,109.9,16.4c0,0.1,0,0.1,0,0.2c0,0,0,0,0,0c0,0,0.1,0,0.1,0c0,0,0,0,0.1,0c0,0,0.1,0,0.1-0.1c0,0,0,0,0-0.1
			c0,0,0-0.1-0.1-0.1c0,0,0,0,0,0C110,16.4,110,16.4,109.9,16.4C109.9,16.4,109.9,16.4,109.9,16.4z"/>
	</g>
</g>
</svg>
